<svg xmlns="http://www.w3.org/2000/svg" width="39.299" height="39.299" viewBox="0 0 39.299 39.299">
  <path id="Icon_material-call" data-name="Icon material-call" d="M12.4,21.508A33.073,33.073,0,0,0,26.791,35.9l4.8-4.8a2.171,2.171,0,0,1,2.227-.524,24.9,24.9,0,0,0,7.794,1.244A2.19,2.19,0,0,1,43.8,34v7.62A2.19,2.19,0,0,1,41.616,43.8,37.112,37.112,0,0,1,4.5,6.683,2.19,2.19,0,0,1,6.683,4.5h7.641a2.19,2.19,0,0,1,2.183,2.183,24.8,24.8,0,0,0,1.244,7.794,2.191,2.191,0,0,1-.546,2.227l-4.8,4.8Z" transform="translate(-4.5 -4.5)" fill="#fc4045"/>
</svg>
